<?xml version="1.0" encoding="UTF-8" standalone="no"?>
<svg width="16px" height="10px" viewBox="0 0 16 10" version="1.1" xmlns="http://www.w3.org/2000/svg" xmlns:xlink="http://www.w3.org/1999/xlink" xmlns:sketch="http://www.bohemiancoding.com/sketch/ns">
    <!-- Generator: Sketch 3.5.2 (25235) - http://www.bohemiancoding.com/sketch -->
    <title>Rectangle 27</title>
    <desc>Created with Sketch.</desc>
    <defs></defs>
    <g id="Page-1" stroke="none" stroke-width="1" fill="none" fill-rule="evenodd" sketch:type="MSPage">
        <g id="ccn-lite" sketch:type="MSArtboardGroup" transform="translate(-1403.000000, -101.000000)" fill="#8794AA">
            <path d="M1412.97098,105.063708 L1407.46196,105.063708 C1406.39123,105.063708 1405.51346,105.939935 1405.51346,107.020815 C1405.51346,108.109231 1406.38583,108.977922 1407.46196,108.977922 L1414.75124,108.977922 C1414.76544,108.977922 1414.77961,108.977768 1414.79374,108.977461 C1414.80758,108.977768 1414.82145,108.977922 1414.83537,108.977922 C1415.87221,108.977922 1416.69975,108.144878 1416.69975,107.117266 L1416.69975,99.0959377 C1416.69975,98.0797831 1415.86504,97.2352814 1414.83537,97.2352814 C1413.79852,97.2352814 1412.97098,98.0683256 1412.97098,99.0959377 L1412.97098,105.063708 Z" id="Rectangle-27" sketch:type="MSShapeGroup" transform="translate(1411.106602, 103.106602) rotate(-315.000000) translate(-1411.106602, -103.106602) "></path>
        </g>
    </g>
</svg>