<?xml version="1.0" encoding="UTF-8" standalone="no"?>
<svg width="61px" height="38px" viewBox="0 0 61 38" version="1.1" xmlns="http://www.w3.org/2000/svg" xmlns:xlink="http://www.w3.org/1999/xlink" xmlns:sketch="http://www.bohemiancoding.com/sketch/ns">
    <!-- Generator: Sketch 3.5 (25232) - http://www.bohemiancoding.com/sketch -->
    <title>Fill 191</title>
    <desc>Created with Sketch.</desc>
    <defs></defs>
    <g id="Page-1" stroke="none" stroke-width="1" fill="none" fill-rule="evenodd" sketch:type="MSPage">
        <g id="ccn-lite" sketch:type="MSArtboardGroup" transform="translate(-959.000000, -429.000000)" fill="#9A9A9A">
            <g id="main-content" sketch:type="MSLayerGroup" transform="translate(382.000000, 112.000000)">
                <g id="sensor" transform="translate(0.000000, 278.000000)" sketch:type="MSShapeGroup">
                    <g id="nattery" transform="translate(550.000000, 0.000000)">
                        <g id="Group-5">
                            <path d="M41.9524516,43.5344072 C41.3660449,43.5344072 40.8926805,44.0091847 40.8926805,44.5941783 L40.8926805,70.8157411 C40.8926805,71.4007348 41.3660449,71.8755122 41.9524516,71.8755122 C42.5388583,71.8755122 43.0122227,71.4007348 43.0122227,70.8157411 L43.0122227,44.5941783 C43.0122227,44.0091847 42.5388583,43.5344072 41.9524516,43.5344072 L41.9524516,43.5344072 Z M35.0074184,43.5344072 C34.4238378,43.5344072 33.9476473,44.0091847 33.9476473,44.5941783 L33.9476473,70.8157411 C33.9476473,71.4007348 34.4238378,71.8755122 35.0074184,71.8755122 C35.5938251,71.8755122 36.0671895,71.4007348 36.0671895,70.8157411 L36.0671895,44.5941783 C36.0671895,44.0091847 35.5938251,43.5344072 35.0074184,43.5344072 L35.0074184,43.5344072 Z M48.8904197,43.5344072 C48.305426,43.5344072 47.8306486,44.0091847 47.8306486,44.5941783 L47.8306486,70.8157411 C47.8306486,71.4007348 48.305426,71.8755122 48.8904197,71.8755122 C49.4754133,71.8755122 49.9501908,71.4007348 49.9501908,70.8157411 L49.9501908,44.5941783 C49.9501908,44.0091847 49.4754133,43.5344072 48.8904197,43.5344072 L48.8904197,43.5344072 Z M55.8269747,43.5344072 C55.2433941,43.5344072 54.7686166,44.0091847 54.7686166,44.5941783 L54.7686166,70.8157411 C54.7686166,71.4007348 55.2433941,71.8755122 55.8269747,71.8755122 C56.4133814,71.8755122 56.8867458,71.4007348 56.8867458,70.8157411 L56.8867458,44.5941783 C56.8867458,44.0091847 56.4133814,43.5344072 55.8269747,43.5344072 L55.8269747,43.5344072 Z M83.6367811,47.0853469 L81.2784372,47.0853469 L81.2784372,45.6624276 C81.2784372,41.9885545 78.2884697,39 74.6160096,39 L34.1666667,39 C30.4913805,39 27.5,41.9885545 27.5,45.6624276 L27.5,69.7460788 C27.5,73.421365 30.4913805,76.4099195 34.1666667,76.4099195 L74.6160096,76.4099195 C78.2884697,76.4099195 81.2784372,73.421365 81.2784372,69.7460788 L81.2784372,68.3231595 L83.6367811,68.3231595 C85.7662145,68.3231595 87.5,66.5907871 87.5,64.4599407 L87.5,50.9457397 C87.5,48.8177194 85.7662145,47.0853469 83.6367811,47.0853469 L83.6367811,47.0853469 Z M85.3804578,64.4599407 C85.3804578,65.4222128 84.5976402,66.2036174 83.6367811,66.2036174 L80.2186661,66.2036174 C79.6336725,66.2036174 79.158895,66.6783948 79.158895,67.2633884 L79.158895,69.7460788 C79.158895,72.2513777 77.1213085,74.2903773 74.6160096,74.2903773 L34.1666667,74.2903773 C31.6585418,74.2903773 29.6195422,72.2513777 29.6195422,69.7460788 L29.6195422,45.6624276 C29.6195422,43.1585418 31.6585418,41.1195422 34.1666667,41.1195422 L74.6160096,41.1195422 C77.1213085,41.1195422 79.158895,43.1585418 79.158895,45.6624276 L79.158895,48.145118 C79.158895,48.7301116 79.6336725,49.2048891 80.2186661,49.2048891 L83.6367811,49.2048891 C84.5806839,49.2048891 85.3804578,50.0018369 85.3804578,50.9457397 L85.3804578,64.4599407 L85.3804578,64.4599407 Z M80.2554048,51.0460647 C79.6704112,51.0460647 79.1942207,51.5208422 79.1942207,52.1058358 L79.1942207,63.3012576 C79.1942207,63.8876643 79.6704112,64.3624417 80.2554048,64.3624417 C80.8403985,64.3624417 81.3137629,63.8876643 81.3137629,63.3012576 L81.3137629,52.1058358 C81.3137629,51.5208422 80.8403985,51.0460647 80.2554048,51.0460647 L80.2554048,51.0460647 Z" id="Fill-191"></path>
                        </g>
                    </g>
                </g>
            </g>
        </g>
    </g>
</svg>